<?xml version="1.0" encoding="UTF-8" standalone="no"?>
<svg
   xmlns:dc="http://purl.org/dc/elements/1.1/"
   xmlns:cc="http://creativecommons.org/ns#"
   xmlns:rdf="http://www.w3.org/1999/02/22-rdf-syntax-ns#"
   xmlns:svg="http://www.w3.org/2000/svg"
   xmlns="http://www.w3.org/2000/svg"
   xmlns:sodipodi="http://sodipodi.sourceforge.net/DTD/sodipodi-0.dtd"
   xmlns:inkscape="http://www.inkscape.org/namespaces/inkscape"
   width="250"
   height="150"
   version="1.1"
   id="svg21"
   sodipodi:docname="logo2.svg">
  <metadata
     id="metadata27">
    <rdf:RDF>
      <cc:Work
         rdf:about="">
        <dc:format>image/svg+xml</dc:format>
        <dc:type
           rdf:resource="http://purl.org/dc/dcmitype/StillImage" />
      </cc:Work>
    </rdf:RDF>
  </metadata>
  <defs
     id="defs25" />
  <sodipodi:namedview
     pagecolor="#ffffff"
     bordercolor="#666666"
     borderopacity="1"
     objecttolerance="10"
     gridtolerance="10"
     guidetolerance="10"
     inkscape:pageopacity="0"
     inkscape:pageshadow="2"
     inkscape:window-width="640"
     inkscape:window-height="480"
     id="namedview23" />
  <!-- Created with Method Draw - http://github.com/duopixel/Method-Draw/ -->
  <g
     id="g8">
    <title
       id="title2">background</title>
    <path
       id="canvas_background"
       style="fill:none"
       d="M -1,-1 H 251 V 151 H -1 Z" />
    <g
       display="none"
       overflow="visible"
       y="0"
       x="0"
       height="100%"
       width="100%"
       id="canvasGrid">
      <path
         id="rect5"
         style="fill:url(#gridpattern);stroke-width:0"
         d="M 0,0 H 250 V 150 H 0 Z" />
    </g>
  </g>
  <g
     id="g19">
    <title
       id="title10">Layer 1</title>
    <g
       aria-label="Q"
       transform="matrix(6.2184041,-0.66285961,0.54282059,5.0922967,-56.415385,-312.18239)"
       id="svg_1"
       style="font-style:normal;font-weight:normal;font-size:24px;font-family:'Shadows Into Light', serif;text-anchor:start;fill:#000000;stroke:#000000;stroke-width:0">
      <path
         d="m 3.6059875,75.198074 q 0,-0.375 0.070312,-1.265625 0.070312,-0.914062 0.234375,-2.0625 0.1875,-1.148437 0.4921875,-2.34375 0.3046875,-1.21875 0.703125,-2.226562 0.421875,-1.007813 0.9609375,-1.640625 0.5625,-0.632813 1.2890625,-0.632813 0.09375,0 0.2578125,0.02344 0.1875,0 0.328125,0.09375 0.140625,0.07031 0.1875,0.1875 0.070312,0.117187 -0.023437,0.328125 0.3984375,-0.210938 0.6796875,-0.304688 0.3046875,-0.117187 0.5625,-0.1875 0.2578125,-0.09375 0.515625,-0.117187 0.28125,-0.02344 0.632813,-0.02344 0.820312,0 1.40625,0.515625 0.609375,0.492188 1.007812,1.3125 0.421875,0.820313 0.65625,1.898438 0.234375,1.078125 0.328125,2.273437 0.09375,1.171875 0.04687,2.367188 -0.02344,1.195312 -0.164062,2.273437 -0.140625,1.078125 -0.375,1.96875 -0.234375,0.867188 -0.492188,1.382813 v 0.09375 q 0,0.02344 0.02344,0.04687 l 1.476562,2.695312 q 0,0.02344 0,0.140625 0.02344,0.09375 0.02344,0.117188 0,0.65625 -0.632813,0.65625 h -0.140625 q -0.09375,0 -0.140625,-0.02344 -0.07031,-0.09375 -0.234375,-0.351562 -0.164062,-0.28125 -0.375,-0.5625 -0.1875,-0.28125 -0.351562,-0.515625 -0.164063,-0.257813 -0.257813,-0.351563 -0.02344,-0.04687 -0.140625,-0.164062 -0.09375,-0.117188 -0.140625,-0.164063 -0.328125,0.421875 -0.703125,0.84375 -0.375,0.421875 -0.84375,0.773438 -0.445312,0.351562 -0.9609375,0.585937 -0.4921875,0.234375 -1.0546875,0.234375 -1.0078125,0 -1.7578125,-0.375 -0.7265625,-0.375 -1.265625,-0.984375 Q 4.89505,81.080887 4.5434875,80.284012 4.191925,79.463699 3.9809875,78.596512 3.77005,77.705887 3.6763,76.838699 3.6059875,75.971512 3.6059875,75.198074 Z m 1.171875,0.210938 q 0,0.492187 0.046875,1.171875 0.070312,0.65625 0.1875,1.382812 0.140625,0.703125 0.375,1.40625 0.2578125,0.703125 0.6328125,1.265625 0.375,0.539063 0.9140625,0.890625 0.5625,0.351563 1.3359375,0.351563 0.515625,0 1.078125,-0.210938 0.5859375,-0.210937 1.03125,-0.5625 0.445313,-0.375 0.75,-0.867187 0.304688,-0.515625 0.304688,-1.078125 v -0.1875 q 0,-0.117188 -0.02344,-0.117188 l -2.0859375,-4.523437 1.1718755,-0.585938 1.523437,3.609375 q 0,0.02344 0.04687,0.04687 0.04687,0.02344 0.07031,0.02344 0.234375,0 0.375,-0.328125 0.164062,-0.351563 0.257812,-0.867188 0.09375,-0.515625 0.117188,-1.101562 0.04687,-0.609375 0.04687,-1.148438 0,-0.539062 0,-0.914062 v -0.421875 q 0,-0.492188 0,-1.171875 0,-0.679688 -0.09375,-1.382813 -0.07031,-0.726562 -0.234375,-1.40625 -0.140625,-0.703125 -0.445313,-1.242187 -0.304687,-0.5625 -0.796875,-0.890625 -0.46875,-0.351563 -1.148437,-0.351563 -1.101563,-0.04687 -1.898438,0.28125 -0.7734375,0.328125 -1.3125,0.914063 -0.5390625,0.5625 -0.890625,1.3125 -0.3515625,0.75 -0.5859375,1.570312 -0.2109375,0.820313 -0.375,1.640625 -0.1640625,0.820313 -0.328125,1.546875 0,0.09375 -0.023437,0.375 0,0.257813 -0.023437,0.585938 0,0.304687 0,0.585937 z"
         style="font-style:normal;font-weight:normal;font-size:24px;font-family:'Shadows Into Light', serif;text-anchor:start;fill:#000000;stroke:#000000;stroke-width:0"
         id="path31" />
    </g>
    <g
       aria-label="i"
       transform="matrix(3.4853967,-0.02105824,0.01506285,2.4930853,34.34545,-176.51921)"
       id="svg_2"
       style="font-style:normal;font-weight:normal;font-size:24px;font-family:'Shadows Into Light', serif;text-anchor:start;fill:#000000;stroke:#000000;stroke-width:0">
      <path
         d="m 23.620146,115.3421 q 0,-1.52344 -0.07031,-3.21094 -0.04687,-1.6875 -0.117187,-3.39843 -0.04687,-1.73438 -0.02344,-3.39844 0.02344,-1.66406 0.210938,-3.11719 0.04687,-0.0234 0.210937,-0.0234 0.1875,-0.0234 0.257813,-0.0234 0.328125,0 0.515625,0.11718 0.210937,0.0937 0.210937,0.44532 0,1.38281 -0.02344,3.02343 0,1.61719 -0.02344,3.30469 0,1.66406 0,3.30469 0,1.64062 0.04687,2.97656 0.02344,0.39844 -0.164062,0.51563 -0.164063,0.14062 -0.421875,0.14062 -0.28125,0 -0.46875,-0.14062 -0.1875,-0.11719 -0.140625,-0.51563 z M 23.104521,98.560852 q 0,-0.28125 0.1875,-0.375 0.1875,-0.09375 0.421875,-0.09375 0.46875,0 0.585937,0.304688 0.117188,0.304687 0.117188,0.703125 -0.140625,0.257812 -0.351563,0.375 -0.210937,0.09375 -0.445312,0.04687 -0.210938,-0.07031 -0.375,-0.304688 -0.140625,-0.234375 -0.140625,-0.65625 z"
         style="font-style:normal;font-weight:normal;font-size:24px;font-family:'Shadows Into Light', serif;text-anchor:start;fill:#000000;stroke:#000000;stroke-width:0"
         id="path34" />
    </g>
    <g
       aria-label="u"
       transform="matrix(3.6531605,0.55510376,-0.48579642,3.1970461,53.393913,-147.90494)"
       id="svg_3"
       style="font-style:normal;font-weight:normal;font-size:24px;font-family:'Shadows Into Light', serif;text-anchor:start;fill:#000000;stroke:#000000;stroke-width:0">
      <path
         d="m 23.40246,75.855713 q -0.09375,0.28125 -0.46875,0.773437 -0.351562,0.46875 -0.84375,0.960938 -0.492187,0.46875 -1.03125,0.84375 -0.515625,0.351562 -0.914062,0.351562 -0.75,0 -1.242188,-0.703125 -0.46875,-0.703125 -0.726562,-1.804687 -0.257813,-1.101563 -0.351563,-2.4375 -0.09375,-1.359375 -0.117187,-2.648438 -0.02344,-1.289062 -0.02344,-2.34375 0,-1.054687 -0.07031,-1.59375 0.09375,-0.234375 0.234375,-0.28125 0.164062,-0.04687 0.375,-0.04687 0.1875,0 0.328125,0.04687 0.164062,0.04687 0.28125,0.28125 0,0.257813 0,0.867188 0.02344,0.609375 0.07031,1.382812 0.04687,0.75 0.09375,1.59375 0.04687,0.820313 0.07031,1.570313 0.04687,0.75 0.07031,1.359375 0.04687,0.585937 0.07031,0.867187 0.02344,0.164063 0.04687,0.539063 0.04687,0.375 0.117187,0.796875 0.09375,0.398437 0.210938,0.726562 0.140625,0.328125 0.351562,0.351563 0.351563,0 0.703125,-0.304688 0.375,-0.304687 0.726563,-0.773437 0.351562,-0.46875 0.65625,-1.03125 0.304687,-0.5625 0.539062,-1.078125 0.257813,-0.539063 0.375,-0.960938 0.140625,-0.421875 0.164063,-0.609375 0.04687,-0.398437 0.09375,-1.125 0.04687,-0.75 0.07031,-1.59375 0.02344,-0.84375 0.02344,-1.59375 0.02344,-0.75 0.02344,-1.148437 l 1.289063,0.07031 q 0.02344,1.898438 -0.02344,3.445313 -0.04687,1.523437 -0.02344,2.882812 0.02344,1.335938 0.210937,2.601563 0.1875,1.265625 0.679688,2.625 -0.07031,0.07031 -0.28125,0.1875 -0.210938,0.140625 -0.304688,0.140625 -0.585937,0 -0.796875,-0.398438 -0.1875,-0.375 -0.257812,-0.890625 -0.04687,-0.539062 -0.09375,-1.054687 -0.02344,-0.539063 -0.304688,-0.84375 z"
         style="font-style:normal;font-weight:normal;font-size:24px;font-family:'Shadows Into Light', serif;text-anchor:start;fill:#000000;stroke:#000000;stroke-width:0"
         id="path37" />
    </g>
    <g
       aria-label="z"
       transform="matrix(3.0752173,0.61710649,-0.54502973,2.7160383,119.22256,-94.501963)"
       id="svg_4"
       style="font-style:normal;font-weight:normal;font-size:24px;font-family:'Shadows Into Light', serif;text-anchor:start;fill:#000000;stroke:#000000;stroke-width:0">
      <path
         d="m 15.844625,67.636475 q -0.117187,-0.539063 0.07031,-1.382813 0.210937,-0.867187 0.585937,-1.875 0.375,-1.007812 0.867188,-2.085937 0.515625,-1.078125 0.984375,-2.039063 0.492187,-0.984375 0.867187,-1.78125 0.375,-0.796875 0.515625,-1.265625 0,-0.02344 0,-0.04687 0.02344,-0.04687 0.02344,-0.09375 0,-0.04687 -0.02344,-0.09375 0,-0.04687 0,-0.07031 -0.65625,0.257812 -1.453125,0.585937 -0.773437,0.304688 -1.570312,0.609375 -0.796875,0.28125 -1.570313,0.539063 -0.75,0.234375 -1.382812,0.375 -0.09375,0.07031 -0.328125,-0.04687 -0.234375,-0.117188 -0.445313,-0.304688 -0.210937,-0.210937 -0.304687,-0.421875 -0.07031,-0.234375 0.164062,-0.421875 0.773438,0 1.828125,-0.304687 1.054688,-0.328125 2.132813,-0.75 1.101562,-0.421875 2.132812,-0.820313 1.054688,-0.421875 1.851563,-0.585937 0.773437,0 0.773437,0.773437 0,0.84375 -0.304687,1.664063 -0.28125,0.796875 -0.726563,1.570312 -0.421875,0.773438 -0.9375,1.523438 -0.492187,0.75 -0.9375,1.523437 -0.421875,0.773438 -0.726562,1.570313 -0.304688,0.796875 -0.304688,1.640625 V 65.9021 L 26.204,64.144287 h 0.164063 q 0.328125,0 0.585937,0.210938 0.28125,0.1875 0.398438,0.445312 0.140625,0.234375 0.02344,0.492188 -0.117187,0.257812 -0.585937,0.375 -0.09375,0 -0.210938,0.02344 -0.09375,0.02344 -0.445312,0.09375 -0.328125,0.04687 -0.984375,0.164063 -0.65625,0.09375 -1.851563,0.304687 -1.171875,0.210938 -3,0.5625 -1.804687,0.328125 -4.453125,0.820313 z"
         style="font-style:normal;font-weight:normal;font-size:24px;font-family:'Shadows Into Light', serif;text-anchor:start;fill:#000000;stroke:#000000;stroke-width:0"
         id="path40" />
    </g>
    <g
       aria-label="y"
       transform="matrix(3.9915693,1.4246878,-0.94481755,2.6471096,159.5362,-218.07114)"
       id="svg_7"
       style="font-style:normal;font-weight:normal;font-size:24px;font-family:'Shadows Into Light', serif;text-anchor:start;fill:#000000;stroke:#000000;stroke-width:0">
      <path
         d="m 37.876192,98.803581 -6.046875,-9.679687 q -0.02344,-0.02344 -0.04687,-0.164063 -0.02344,-0.164062 -0.02344,-0.257812 0,-0.304688 0.09375,-0.515625 0.117187,-0.234375 0.5625,-0.234375 0.09375,0 0.328125,0.117187 0.234375,0.09375 0.28125,0.1875 0.515625,0.820313 1.054687,1.828125 0.5625,1.007813 1.148438,2.015625 0.609375,1.007813 1.265625,1.945313 0.65625,0.914062 1.382812,1.570312 l 0.5625,-9.1875 q 0.02344,0 0.117188,0 0.117187,-0.02344 0.164062,-0.02344 0.210938,0 0.421875,0.07031 0.210938,0.04687 0.304688,0.304688 0.02344,0.84375 0,2.085937 0,1.242188 -0.04687,2.554688 -0.02344,1.3125 -0.07031,2.53125 -0.02344,1.195312 -0.04687,1.921875 -0.02344,0.46875 -0.09375,1.40625 -0.04687,0.9375 -0.140625,2.109375 -0.07031,1.195311 -0.1875,2.507811 -0.09375,1.3125 -0.1875,2.48438 -0.09375,1.17187 -0.164062,2.10937 -0.07031,0.96094 -0.117188,1.38281 h -1.21875 z"
         style="font-style:normal;font-weight:normal;font-size:24px;font-family:'Shadows Into Light', serif;text-anchor:start;fill:#000000;stroke:#000000;stroke-width:0"
         id="path43" />
    </g>
    <g
       aria-label="z"
       transform="matrix(3.1346543,-0.10827726,0.0956307,2.7685332,81.235587,-82.341554)"
       id="svg_8"
       style="font-style:normal;font-weight:normal;font-size:24px;font-family:'Shadows Into Light', serif;text-anchor:start;fill:#000000;stroke:#000000;stroke-width:0">
      <path
         d="m 24.213764,61.319195 q -0.117187,-0.539063 0.07031,-1.382813 0.210937,-0.867187 0.585937,-1.875 0.375,-1.007812 0.867188,-2.085937 0.515625,-1.078125 0.984375,-2.039063 0.492187,-0.984375 0.867187,-1.78125 0.375,-0.796875 0.515625,-1.265625 0,-0.02344 0,-0.04687 0.02344,-0.04687 0.02344,-0.09375 0,-0.04687 -0.02344,-0.09375 0,-0.04687 0,-0.07031 -0.65625,0.257812 -1.453125,0.585937 -0.773437,0.304688 -1.570312,0.609375 -0.796875,0.28125 -1.570313,0.539063 -0.75,0.234375 -1.382812,0.375 -0.09375,0.07031 -0.328125,-0.04687 -0.234375,-0.117188 -0.445313,-0.304688 -0.210937,-0.210937 -0.304687,-0.421875 -0.07031,-0.234375 0.164062,-0.421875 0.773438,0 1.828125,-0.304687 1.054688,-0.328125 2.132813,-0.75 1.101562,-0.421875 2.132812,-0.820313 1.054688,-0.421875 1.851563,-0.585937 0.773437,0 0.773437,0.773437 0,0.84375 -0.304687,1.664063 -0.28125,0.796875 -0.726563,1.570312 -0.421875,0.773438 -0.9375,1.523438 -0.492187,0.75 -0.9375,1.523437 -0.421875,0.773438 -0.726562,1.570313 -0.304688,0.796875 -0.304688,1.640625 v 0.28125 l 8.578125,-1.757813 h 0.164063 q 0.328125,0 0.585937,0.210938 0.28125,0.1875 0.398438,0.445312 0.140625,0.234375 0.02344,0.492188 -0.117187,0.257812 -0.585937,0.375 -0.09375,0 -0.210938,0.02344 -0.09375,0.02344 -0.445312,0.09375 -0.328125,0.04687 -0.984375,0.164063 -0.65625,0.09375 -1.851563,0.304687 -1.171875,0.210938 -3,0.5625 -1.804687,0.328125 -4.453125,0.820313 z"
         style="font-style:normal;font-weight:normal;font-size:24px;font-family:'Shadows Into Light', serif;text-anchor:start;fill:#000000;stroke:#000000;stroke-width:0"
         id="path46" />
    </g>
    <g
       aria-label="z"
       transform="matrix(2.5892284,1.7702198,-1.5634618,2.2868119,210.23124,-113.06505)"
       id="svg_9"
       style="font-style:normal;font-weight:normal;font-size:24px;font-family:'Shadows Into Light', serif;text-anchor:start;fill:#000000;stroke:#000000;stroke-width:0">
      <path
         d="m 30.092094,76.661156 q -0.117187,-0.539063 0.07031,-1.382813 0.210937,-0.867187 0.585937,-1.875 0.375,-1.007812 0.867188,-2.085937 0.515625,-1.078125 0.984375,-2.039063 0.492187,-0.984375 0.867187,-1.78125 0.375,-0.796875 0.515625,-1.265625 0,-0.02344 0,-0.04687 0.02344,-0.04687 0.02344,-0.09375 0,-0.04687 -0.02344,-0.09375 0,-0.04687 0,-0.07031 -0.65625,0.257812 -1.453125,0.585937 -0.773437,0.304688 -1.570312,0.609375 -0.796875,0.28125 -1.570313,0.539063 -0.75,0.234375 -1.382812,0.375 -0.09375,0.07031 -0.328125,-0.04687 -0.234375,-0.117188 -0.445313,-0.304688 -0.210937,-0.210937 -0.304687,-0.421875 -0.07031,-0.234375 0.164062,-0.421875 0.773438,0 1.828125,-0.304687 1.054688,-0.328125 2.132813,-0.75 1.101562,-0.421875 2.132812,-0.820313 1.054688,-0.421875 1.851563,-0.585937 0.773437,0 0.773437,0.773437 0,0.84375 -0.304687,1.664063 -0.28125,0.796875 -0.726563,1.570312 -0.421875,0.773438 -0.9375,1.523438 -0.492187,0.75 -0.9375,1.523437 -0.421875,0.773438 -0.726562,1.570313 -0.304688,0.796875 -0.304688,1.640625 v 0.28125 l 8.578125,-1.757813 h 0.164063 q 0.328125,0 0.585937,0.210938 0.28125,0.1875 0.398438,0.445312 0.140625,0.234375 0.02344,0.492188 -0.117187,0.257812 -0.585937,0.375 -0.09375,0 -0.210938,0.02344 -0.09375,0.02344 -0.445312,0.09375 -0.328125,0.04687 -0.984375,0.164063 -0.65625,0.09375 -1.851563,0.304687 -1.171875,0.210938 -3,0.5625 -1.804687,0.328125 -4.453125,0.820313 z"
         style="font-style:normal;font-weight:normal;font-size:24px;font-family:'Shadows Into Light', serif;text-anchor:start;fill:#000000;stroke:#000000;stroke-width:0"
         id="path49" />
    </g>
  </g>
</svg>
